<svg width="1329" height="748" viewBox="0 0 1329 748" fill="none" xmlns="http://www.w3.org/2000/svg">
<path d="M1176.43 444.909C1163.27 444.909 1151.95 442.245 1142.46 436.917C1133.02 431.533 1125.75 423.93 1120.65 414.106C1115.54 404.227 1112.99 392.544 1112.99 379.058C1112.99 365.904 1115.54 354.36 1120.65 344.425C1125.75 334.491 1132.94 326.748 1142.21 321.198C1151.53 315.648 1162.47 312.873 1175.01 312.873C1183.45 312.873 1191.3 314.233 1198.57 316.952C1205.9 319.616 1212.28 323.64 1217.72 329.024C1223.21 334.407 1227.49 341.178 1230.54 349.337C1233.59 357.44 1235.12 366.931 1235.12 377.809V387.549H1127.14V365.571H1201.73C1201.73 360.465 1200.62 355.942 1198.4 352.001C1196.18 348.06 1193.1 344.98 1189.16 342.76C1185.28 340.485 1180.75 339.347 1175.59 339.347C1170.21 339.347 1165.44 340.596 1161.27 343.093C1157.17 345.535 1153.95 348.837 1151.62 353C1149.29 357.107 1148.09 361.686 1148.04 366.736V387.632C1148.04 393.96 1149.2 399.426 1151.53 404.033C1153.92 408.639 1157.28 412.192 1161.61 414.689C1165.94 417.187 1171.07 418.435 1177.01 418.435C1180.95 418.435 1184.56 417.88 1187.83 416.77C1191.11 415.66 1193.91 413.995 1196.24 411.775C1198.57 409.555 1200.35 406.836 1201.57 403.617L1234.37 405.781C1232.7 413.662 1229.29 420.544 1224.13 426.427C1219.02 432.255 1212.42 436.806 1204.31 440.081C1196.27 443.3 1186.97 444.909 1176.43 444.909Z" fill="white"/>
<path d="M1036.79 493.028C1025.3 493.028 1015.45 491.446 1007.23 488.283C999.076 485.175 992.582 480.929 987.754 475.546C982.925 470.162 979.789 464.112 978.346 457.397L1011.15 452.985C1012.15 455.538 1013.73 457.924 1015.89 460.144C1018.06 462.364 1020.92 464.14 1024.47 465.472C1028.07 466.86 1032.46 467.553 1037.62 467.553C1045.34 467.553 1051.69 465.666 1056.69 461.892C1061.74 458.174 1064.26 451.93 1064.26 443.161V419.767H1062.76C1061.21 423.319 1058.88 426.677 1055.77 429.841C1052.66 433.004 1048.67 435.585 1043.78 437.583C1038.9 439.581 1033.07 440.58 1026.3 440.58C1016.7 440.58 1007.96 438.36 1000.07 433.92C992.249 429.424 986.006 422.57 981.343 413.357C976.737 404.088 974.434 392.378 974.434 378.225C974.434 363.739 976.792 351.64 981.51 341.928C986.227 332.215 992.499 324.944 1000.32 320.116C1008.21 315.287 1016.84 312.873 1026.22 312.873C1033.38 312.873 1039.37 314.094 1044.2 316.536C1049.03 318.923 1052.91 321.92 1055.85 325.527C1058.85 329.079 1061.15 332.576 1062.76 336.017H1064.09V314.538H1099.31V443.66C1099.31 454.539 1096.65 463.641 1091.32 470.967C1085.99 478.293 1078.61 483.787 1069.17 487.45C1059.79 491.169 1049 493.028 1036.79 493.028ZM1037.54 413.94C1043.25 413.94 1048.08 412.525 1052.02 409.694C1056.02 406.808 1059.07 402.701 1061.18 397.373C1063.35 391.989 1064.43 385.551 1064.43 378.059C1064.43 370.566 1063.37 364.072 1061.26 358.578C1059.16 353.028 1056.1 348.726 1052.11 345.674C1048.11 342.621 1043.25 341.095 1037.54 341.095C1031.71 341.095 1026.8 342.677 1022.8 345.84C1018.81 348.948 1015.78 353.278 1013.73 358.828C1011.67 364.378 1010.65 370.788 1010.65 378.059C1010.65 385.44 1011.67 391.823 1013.73 397.206C1015.84 402.534 1018.86 406.669 1022.8 409.611C1026.8 412.497 1031.71 413.94 1037.54 413.94Z" fill="white"/>
<path d="M877.204 490.361C872.708 490.361 868.49 490.001 864.55 489.279C860.665 488.613 857.446 487.753 854.893 486.698L862.885 460.224C867.047 461.501 870.794 462.195 874.124 462.306C877.509 462.417 880.423 461.64 882.865 459.975C885.363 458.31 887.388 455.479 888.942 451.483L891.024 446.072L845.152 314.535H882.449L908.923 408.442H910.255L936.978 314.535H974.524L924.824 456.228C922.437 463.11 919.19 469.105 915.083 474.211C911.032 479.372 905.898 483.34 899.682 486.115C893.466 488.946 885.973 490.361 877.204 490.361Z" fill="white"/>
<path d="M841.585 314.539V341.179H764.578V314.539H841.585ZM782.061 283.902H817.526V403.118C817.526 406.392 818.025 408.945 819.024 410.777C820.023 412.553 821.411 413.802 823.187 414.523C825.018 415.245 827.127 415.605 829.514 415.605C831.179 415.605 832.844 415.467 834.509 415.189C836.174 414.856 837.451 414.606 838.339 414.44L843.916 440.831C842.14 441.386 839.643 442.024 836.424 442.745C833.205 443.522 829.292 443.994 824.685 444.161C816.138 444.494 808.646 443.356 802.208 440.747C795.825 438.139 790.858 434.087 787.306 428.593C783.754 423.098 782.005 416.16 782.061 407.78V283.902Z" fill="white"/>
<path d="M672.578 368.485V442.412H637.113V314.538H670.913V337.099H672.412C675.242 329.662 679.988 323.779 686.648 319.45C693.308 315.065 701.383 312.873 710.874 312.873C719.754 312.873 727.496 314.816 734.101 318.701C740.705 322.586 745.839 328.136 749.502 335.351C753.165 342.51 754.997 351.058 754.997 360.992V442.412H732.568C725.368 442.412 719.532 436.575 719.532 429.375V367.319C719.587 359.494 717.589 353.389 713.538 349.004C709.486 344.564 703.908 342.344 696.804 342.344C692.031 342.344 687.813 343.371 684.15 345.424C680.543 347.478 677.712 350.475 675.659 354.415C673.66 358.3 672.634 362.99 672.578 368.485Z" fill="white"/>
<path d="M546.958 444.826C538.799 444.826 531.529 443.411 525.146 440.58C518.764 437.694 513.713 433.448 509.995 427.843C506.332 422.182 504.5 415.133 504.5 406.697C504.5 399.593 505.804 393.627 508.413 388.798C511.021 383.969 514.573 380.084 519.069 377.143C523.564 374.201 528.671 371.981 534.387 370.483C540.159 368.984 546.209 367.93 552.536 367.319C559.973 366.542 565.967 365.821 570.518 365.155C575.069 364.433 578.371 363.379 580.425 361.991C582.478 360.604 583.505 358.55 583.505 355.831V355.331C583.505 350.058 581.84 345.979 578.51 343.093C575.236 340.207 570.574 338.764 564.524 338.764C558.141 338.764 553.063 340.179 549.289 343.01C545.515 345.785 543.017 349.281 541.796 353.5L508.996 350.836C510.661 343.065 513.935 336.35 518.819 330.689C523.703 324.972 530.003 320.588 537.717 317.535C545.487 314.427 554.478 312.873 564.69 312.873C571.795 312.873 578.593 313.706 585.087 315.371C591.636 317.036 597.436 319.616 602.486 323.113C607.593 326.609 611.616 331.105 614.558 336.6C617.499 342.039 618.97 348.56 618.97 356.164V442.412H585.337V424.679H584.338C582.284 428.675 579.537 432.199 576.096 435.252C572.655 438.249 568.52 440.608 563.691 442.328C558.863 443.993 553.285 444.826 546.958 444.826ZM557.115 420.35C562.332 420.35 566.938 419.323 570.934 417.27C574.93 415.161 578.066 412.33 580.342 408.778C582.617 405.226 583.755 401.202 583.755 396.707V383.137C582.645 383.858 581.119 384.524 579.176 385.135C577.289 385.69 575.152 386.217 572.766 386.717C570.379 387.161 567.993 387.577 565.606 387.965C563.22 388.298 561.055 388.604 559.113 388.881C554.95 389.492 551.315 390.463 548.207 391.795C545.099 393.127 542.684 394.931 540.964 397.206C539.243 399.426 538.383 402.201 538.383 405.531C538.383 410.36 540.131 414.051 543.628 416.604C547.18 419.101 551.676 420.35 557.115 420.35Z" fill="white"/>
<path d="M505.161 314.535L460.455 442.409H420.495L375.789 314.535H401.773C408.573 314.535 414.556 319.028 416.452 325.56L439.809 406.028H441.141L464.421 325.572C466.313 319.035 472.299 314.535 479.104 314.535H505.161Z" fill="white"/>
<path d="M88.7939 493.27C73.0162 493.269 60.2258 480.479 60.2256 464.701L60.2256 279.005C60.2258 263.227 73.0162 250.437 88.7939 250.437L274.49 250.437C290.268 250.437 303.058 263.227 303.059 279.005L303.059 464.701C303.058 480.479 290.268 493.269 274.49 493.27L88.7939 493.27ZM170.896 448.085C175.726 456.449 187.798 456.449 192.627 448.085L264.13 324.238C268.959 315.874 262.922 305.419 253.265 305.419L230.632 305.419C226.598 305.419 222.87 307.572 220.853 311.065L159.581 417.193C157.564 420.687 157.564 424.991 159.581 428.484L170.896 448.085ZM130.421 377.98C134.767 385.507 145.632 385.507 149.979 377.98L182.093 322.356C186.439 314.829 181.007 305.419 172.314 305.419L108.086 305.419C99.3937 305.419 93.9615 314.829 98.3076 322.356L130.421 377.98Z" fill="#A5F58A"/>
</svg>
